# xmcd
#
# Track frame offsets:
#	150
#	11909
#	27756
#	42833
#	53499
#	68324
#	80325
#	93452
#	104692
#	120876
#	134535
#	148161
#	161118
#	174106
#	186494
#	198616
#
# Disc length: 2831 seconds
#
# Revision: 0
# Processed by: cddbd v1.5.2PL0 Copyright (c) Steve Scherf et al.
# Submitted via: EasyCDDAExtractor 16.0.6.1
#
DISCID=d60b0d10
DTITLE=Ζαγοραίος Σπύρος - Σπύρος Ζαγοραίος 02
DYEAR=2010
DGENRE=Ποικίλη
TTITLE0=Πάρτε, κύριε, λαχεία [Δημήτρης Γκούτης]
TTITLE1=Καρδιά μου καϋμένη [παρ., διασκ. Δ. Γκούτης-Μ. Μπακάλης]
TTITLE2=Πριν το χάραμα μονάχος [Γ. Παπαϊωάννου-Χαρ. Βασιλειάδης]
TTITLE3=Αντιλαλούν δυό σήμαντρα [Μάρκος Βαμβακάρης]
TTITLE4=Η κούκλα (Ένας κούκλος και μία κούκλα)[Δημ. Γκούτης]
TTITLE5=Έχω ένα μεράκι [Σ. Ζαγοραίος-Κ. Καπλάνης]
TTITLE6=Πόσο με καίει ο πυρετός [Θόδωρος Μπουσδούκος]
TTITLE7=Ρίξε τσιγγάνα τα χαρτιά [Μάρκος Βαμβακάρης]
TTITLE8=Το φτωχομπούζουκο [Μανώλης Χιώτης]
TTITLE9=Η λεωφόρος [Γ. Κόρος-Γ. Καπλάνογλου]
TTITLE10=Το σφάλμα του πατέρα μου [Δημ. Γκούτης-Σπ. Περιστέρης]
TTITLE11=Φχαριστήθηκα [Σπύρος Ζαγοραίος]
TTITLE12=Κανείς δεν ήρθε να με δει [Χρ. Κολοκοτρώνης-Κ. Λαβίδας]
TTITLE13=Έγιναν γκρίζα τα μαλλιά μου [Σ. Ζαγοραίος-Κ. Βίρβος]
TTITLE14=Δεν ξέρω πότε μ' αγαπάς [Γ. Σιδέρης-Γ. Καπλάνογλου]
TTITLE15=Τα δώρα [Γ. Καπλάνογλου-Κ. Κατσίγρας]
EXTD=
EXTT0=
EXTT1=
EXTT2=
EXTT3=
EXTT4=
EXTT5=
EXTT6=
EXTT7=
EXTT8=
EXTT9=
EXTT10=
EXTT11=
EXTT12=
EXTT13=
EXTT14=
EXTT15=
PLAYORDER=
